<?xml version="1.0" standalone="no"?><svg xmlns="http://www.w3.org/2000/svg" viewBox="0 0 1440 320"><path fill="#171717" fill-opacity="1" d="M0,160L40,144C80,128,160,96,240,106.7C320,117,400,171,480,197.3C560,224,640,224,720,197.3C800,171,880,117,960,101.3C1040,85,1120,107,1200,128C1280,149,1360,171,1400,181.3L1440,192L1440,320L1400,320C1360,320,1280,320,1200,320C1120,320,1040,320,960,320C880,320,800,320,720,320C640,320,560,320,480,320C400,320,320,320,240,320C160,320,80,320,40,320L0,320Z"></path></svg>